<?xml version="1.0" encoding="utf-8"?>
<svg width="735px" height="328px" viewBox="0 0 735 328" version="1.1" xmlns:xlink="http://www.w3.org/1999/xlink" xmlns="http://www.w3.org/2000/svg">
  <g id="Group">
    <g id="ALGERIAN" transform="translate(6 0)">
      <g transform="translate(0, 41.904)" id="ALGERIAN" fill="#AB2A2A">
        <path d="M62.1914 149.61L51.6797 118.497L23.168 118.497L12.0938 149.61L22.8867 149.61L22.8867 152.352L0.878906 152.352L0.878906 149.61L7.62891 149.61L44.3672 50.6801L56.1445 50.6801L92.4609 149.61L99.0703 149.61L99.0703 152.352L51.9961 152.352L51.9961 149.61L62.1914 149.61ZM38.0039 77.6098L24.4688 115.332L50.5547 115.332L38.0039 77.6098ZM102.959 51.559L154.815 51.559L154.815 54.7231L139.522 54.7231L139.522 149.188L144.725 149.188Q156.959 149.188 164.237 141.7Q171.514 134.211 179.002 118.672L182.026 118.672L179.284 152.352L102.959 152.352L102.959 149.188L111.467 149.188L111.467 54.7231L102.959 54.7231L102.959 51.559ZM240.465 150.911Q247.531 150.911 249.465 148.344Q251.433 145.743 251.433 139.52L251.433 111.606L242.222 111.606L242.222 108.442L283.672 108.442L283.672 111.606L278.047 111.606L278.047 152.211L275.902 152.211Q273.3 148.625 268.554 148.625Q266.55 148.625 256.531 151.227Q246.511 153.793 239.48 153.793Q215.996 153.793 203.093 141.137Q190.226 128.446 190.226 103.028Q190.226 77.6098 203.691 63.7934Q217.156 49.977 239.902 49.977Q248.691 49.977 257.55 52.227Q266.41 54.4418 267.851 54.4418Q269.293 54.4418 269.996 53.809Q270.734 53.1411 271.578 51.559L273.16 51.559L274.32 82.8129L271.718 82.8129Q264.687 68.8207 257.55 60.8403Q250.414 52.8598 241.625 52.8598Q219.617 52.8598 219.617 95.8911L219.617 107.282Q219.617 128.868 224.996 139.907Q230.41 150.911 240.465 150.911ZM291.455 51.559L366.338 51.559L367.78 80.0707L365.178 80.0707Q359.131 65.5161 352.487 60.1371Q345.877 54.7231 333.08 54.7231L328.018 54.7231L328.018 99.2309L332.94 99.2309Q339.69 99.2309 344.295 94.1332Q348.901 89.0004 350.799 80.352L352.944 80.352L352.944 122.961L350.483 122.961Q347.916 112.168 343.522 107.563Q339.127 102.957 331.498 102.957L328.018 102.957L328.018 149.188L333.502 149.188Q346.756 149.188 356.037 141.278Q365.319 133.332 368.799 120.957L371.647 120.957L370.522 152.352L291.455 152.352L291.455 149.188L299.963 149.188L299.963 54.7231L291.455 54.7231L291.455 51.559ZM425.503 101.375L417.874 101.375L417.874 149.61L427.261 149.61L427.261 152.352L380.432 152.352L380.432 149.61L389.819 149.61L389.819 54.3012L380.432 54.3012L380.432 51.559L423.921 51.559Q442.659 51.559 450.499 53.4926Q458.339 55.4262 461.503 58.1684Q468.429 63.7934 468.429 76.0278Q468.429 88.2621 462.382 93.5356Q456.335 98.7739 443.96 99.7934L443.96 100.215Q455.632 101.797 460.237 107.141Q464.843 112.45 464.843 125L464.843 132.629Q464.843 140.118 465.616 142.719Q466.425 145.286 468.991 145.286Q471.593 145.286 473.104 142.93Q474.616 140.539 475.917 132.911L478.378 133.192Q476.796 145.426 472.823 149.61Q468.85 153.793 457.038 153.793Q445.261 153.793 440.268 148.274Q435.311 142.719 435.311 127.426L435.311 116.914Q435.311 108.864 433.202 105.137Q431.128 101.375 425.503 101.375ZM417.874 54.3012L417.874 98.6332L422.479 98.6332Q430.706 98.6332 434.643 93.6059Q438.616 88.5434 438.616 77.1879L438.616 73.0043Q438.616 61.6489 434.784 57.9926Q430.987 54.3012 422.655 54.3012L417.874 54.3012ZM484.978 51.559L528.923 51.559L528.923 54.3012L520.978 54.3012L520.978 149.61L528.923 149.61L528.923 152.352L484.978 152.352L484.978 149.61L492.923 149.61L492.923 54.3012L484.978 54.3012L484.978 51.559ZM594.703 149.61L584.192 118.497L555.68 118.497L544.606 149.61L555.399 149.61L555.399 152.352L533.391 152.352L533.391 149.61L540.141 149.61L576.879 50.6801L588.656 50.6801L624.973 149.61L631.582 149.61L631.582 152.352L584.508 152.352L584.508 149.61L594.703 149.61ZM570.516 77.6098L556.981 115.332L583.067 115.332L570.516 77.6098ZM717.421 54.3012L717.421 152.352L697.241 152.352L647.846 59.1879L647.846 149.61L655.792 149.61L655.792 152.352L636.034 152.352L636.034 149.61L643.979 149.61L643.979 54.3012L636.034 54.3012L636.034 51.559L675.796 51.559L713.518 123.84L713.518 54.3012L705.608 54.3012L705.608 51.559L725.331 51.559L725.331 54.3012L717.421 54.3012Z" />
      </g>
    </g>
    <g id="FORUMS" transform="translate(0 123)">
      <g transform="translate(0, 42.75)" id="FORUMS">
        <path d="M24.7983 42.7583L114.557 42.7583L109.422 67.7237L49.4297 67.7237L44.9626 90.1006L89.7583 90.1006L85.166 113.354L40.3704 113.354L30.6013 162.45L0.834961 162.45L24.7983 42.7583ZM155.428 163.661Q142.779 163.661 132.509 159.235Q122.28 154.768 115.434 146.669Q108.587 138.528 105.999 127.34Q103.452 116.11 106.04 102.583Q108.754 89.0987 115.768 77.9102Q122.781 66.68 132.843 58.5809Q142.946 50.44 155.011 46.0147Q167.076 41.5477 179.726 41.5477Q192.709 41.5477 202.979 46.0147Q213.249 50.44 220.054 58.5809Q226.901 66.68 229.364 77.9102Q231.869 89.0987 229.155 102.583Q226.567 116.11 219.553 127.34Q212.54 138.528 202.437 146.669Q192.375 154.768 180.31 159.235Q168.245 163.661 155.428 163.661ZM160.563 138.153Q169.957 138.153 177.889 133.56Q185.863 128.926 191.332 120.911Q196.801 112.853 198.888 102.583Q200.934 92.188 198.596 84.2559Q196.3 76.282 190.204 71.648Q184.151 67.014 174.758 67.014Q165.197 67.014 157.223 71.648Q149.291 76.282 143.822 84.2559Q138.353 92.188 136.308 102.583Q134.22 112.853 136.516 120.911Q138.854 128.926 144.991 133.56Q151.17 138.153 160.563 138.153ZM316.509 81.751Q317.386 77.451 316.258 74.3199Q315.173 71.147 311.917 69.4353Q308.66 67.7237 303.358 67.7237L279.938 67.7237L274.469 95.9454L297.889 95.9454Q305.738 95.9454 310.456 92.2715Q315.173 88.5977 316.509 81.751ZM310.372 42.7583Q325.067 42.7583 333.876 48.1438Q342.685 53.5293 345.733 62.4217Q348.822 71.314 346.776 81.751Q344.898 91.3113 338.385 100.371Q331.914 109.43 320.976 115.191Q310.038 120.911 294.8 120.911L269.501 120.911L261.109 162.45L231.343 162.45L255.306 42.7583L310.372 42.7583ZM311.917 110.641L332.916 162.45L300.102 162.45L280.773 110.641L311.917 110.641ZM370.401 42.7583L400.126 42.7583L385.431 116.611Q384.053 123.457 385.765 128.342Q387.476 133.226 391.902 135.689Q396.369 138.153 403.215 138.153Q410.062 138.153 415.615 135.689Q421.167 133.226 425.008 128.342Q428.849 123.457 430.226 116.611L444.922 42.7583L474.688 42.7583L460.494 113.897Q458.114 126.38 451.852 135.689Q445.631 144.999 436.99 151.262Q428.348 157.482 418.161 160.571Q408.016 163.661 397.579 163.661Q383.552 163.661 373.031 158.108Q362.511 152.514 357.71 141.492Q352.951 130.471 356.207 113.897L370.401 42.7583ZM498.97 162.45L469.204 162.45L493.167 42.7583L528.403 42.7583L544.977 123.958L594.072 42.7583L629.266 42.7583L605.344 162.45L575.578 162.45L589.271 93.8997L549.444 162.45L525.146 162.45L512.664 93.8997L498.97 162.45ZM655.441 126.046Q655.274 130.972 657.32 133.978Q659.365 136.984 662.956 138.278Q666.546 139.53 671.18 139.53Q679.196 139.53 684.247 136.19Q689.299 132.851 690.342 127.549Q691.177 123.29 689.048 120.744Q686.919 118.155 682.536 116.36Q678.194 114.565 672.391 112.686Q665.878 110.808 659.365 108.345Q652.894 105.84 647.676 101.999Q642.457 98.158 640.036 92.021Q637.656 85.8423 639.702 76.616Q641.915 65.3023 649.262 57.4537Q656.652 49.605 667.423 45.5972Q678.194 41.5477 691.01 41.5477Q702.658 41.5477 711.008 44.971Q719.399 48.3943 723.991 54.9905Q728.625 61.545 728.959 71.314L700.738 76.115Q700.738 72.316 698.776 69.9363Q696.813 67.5567 693.724 66.4295Q690.676 65.3023 687.42 65.3023Q683.329 65.3023 679.655 66.68Q675.981 68.0577 673.309 70.646Q670.679 73.1927 669.969 76.616Q669.301 80.3733 671.264 82.7947Q673.226 85.1744 677.067 87.053Q680.907 88.9317 685.875 90.6434Q692.388 92.856 699.318 95.4444Q706.248 97.991 711.717 101.999Q717.186 106.007 719.733 112.269Q722.321 118.489 720.443 127.924Q718.522 137.986 711.926 146.043Q705.372 154.059 694.517 158.86Q683.663 163.661 668.425 163.661Q655.608 163.661 646.215 159.987Q636.821 156.313 631.686 149.132Q626.551 141.91 626.551 131.515L655.441 126.046Z" />
      </g>
    </g>
  </g>
</svg>